<?xml version="1.0" encoding="utf-8"?>
<!-- Generator: Adobe Illustrator 22.1.0, SVG Export Plug-In . SVG Version: 6.00 Build 0)  -->
<svg version="1.1" id="Слой_1" xmlns="http://www.w3.org/2000/svg" xmlns:xlink="http://www.w3.org/1999/xlink" x="0px" y="0px"
	 viewBox="0 0 52 36" style="enable-background:new 0 0 52 36;" xml:space="preserve">
<style type="text/css">
	.st0{fill:#555555;stroke:#555555;stroke-miterlimit:10;}
</style>
<path id="icon" class="st0" d="M9,13.2c1.1-2.1,3.3-3.5,5.7-3.6h26.2V8c0-1.4-1.1-2.5-2.5-2.5H27.7V4.1c0-2-1.6-3.7-3.7-3.7h-6.3
	c-1,0-1.9,0.4-2.6,1.1C14.4,2.1,14,3.1,14,4.1v1.4H3.2C1.8,5.5,0.7,6.6,0.7,8v22.2L9,13.2z M16.5,4.1c0-0.3,0.1-0.6,0.4-0.9
	c0.2-0.2,0.5-0.4,0.9-0.4H24c0.7,0,1.2,0.6,1.2,1.2c0,0,0,0,0,0v1.4h-8.7V4.1L16.5,4.1z M41.9,33.8c-0.7,1.3-2.1,2.1-3.5,2.2H3.1
	c-0.8,0.1-1.5-0.4-1.6-1.2c-0.1-0.4,0-0.7,0.2-1l9.5-19.4c0.7-1.3,2.1-2.1,3.5-2.2H50c0.8-0.1,1.5,0.4,1.6,1.2c0.1,0.4,0,0.7-0.2,1
	L41.9,33.8z"/>
</svg>
