<?xml version="1.0" encoding="utf-8"?>
<!-- Generator: Adobe Illustrator 22.1.0, SVG Export Plug-In . SVG Version: 6.00 Build 0)  -->
<svg version="1.1" id="Слой_1" xmlns="http://www.w3.org/2000/svg" xmlns:xlink="http://www.w3.org/1999/xlink" x="0px" y="0px"
	 viewBox="0 0 44 44" style="enable-background:new 0 0 44 44;" xml:space="preserve">
<style type="text/css">
	.st0{fill:#555555;stroke:#555555;stroke-miterlimit:10;}
</style>
<path id="icon" class="st0" d="M43.9,21.9c0-1.7-1.1-3.2-2.6-3.9c-1.4-0.5-2.5-1.5-3.2-2.7c-0.4-1.4-0.3-2.9,0.4-4.2
	c0.6-1.6,0.3-3.4-0.9-4.6c-1.2-1.2-3-1.5-4.6-0.9c-1.3,0.6-2.8,0.8-4.2,0.4c-1.3-0.7-2.3-1.9-2.7-3.2c-0.9-2.1-3.3-3.2-5.4-2.3
	c-1,0.4-1.9,1.3-2.3,2.3c-0.5,1.4-1.5,2.5-2.7,3.2c-1.4,0.4-2.9,0.3-4.2-0.4C9.7,4.9,8,5.3,6.7,6.4c-1.2,1.2-1.5,3-0.9,4.6
	c0.6,1.3,0.8,2.8,0.4,4.2C5.5,16.5,4.3,17.5,3,18c-2.1,0.9-3.2,3.3-2.3,5.4c0.4,1.1,1.3,1.9,2.3,2.3c1.4,0.5,2.5,1.5,3.2,2.7
	c0.4,1.4,0.3,2.9-0.4,4.2c-0.6,1.6-0.3,3.4,0.9,4.6c1.2,1.2,3,1.5,4.6,0.9c1.3-0.6,2.8-0.8,4.2-0.4c1.3,0.7,2.3,1.9,2.7,3.2
	c0.9,2.1,3.3,3.2,5.4,2.3c1-0.4,1.9-1.3,2.3-2.3c0.5-1.4,1.5-2.5,2.7-3.2c1.4-0.4,2.9-0.3,4.2,0.4c2.1,0.9,4.6-0.1,5.5-2.2
	c0.4-1,0.4-2.2,0-3.3c-0.6-1.3-0.8-2.8-0.4-4.2c0.7-1.3,1.9-2.3,3.2-2.7C42.9,25,43.9,23.5,43.9,21.9z M22.1,29.8c-4.4,0-8-3.6-8-8
	s3.6-8,8-8s8,3.6,8,8c0,0,0,0,0,0C30.1,26.3,26.6,29.8,22.1,29.8z"/>
</svg>
