<svg id="Слой_1" data-name="Слой 1" xmlns="http://www.w3.org/2000/svg" viewBox="0 0 44.57 44.57"><defs><style>.cls-1{fill:#c7b299;stroke:#c7b299;stroke-miterlimit:10;}</style></defs><title>services-customization-after</title><path id="icon" class="cls-1" d="M43.93,21.85A4.34,4.34,0,0,0,41.32,18a6,6,0,0,1-3.24-2.74A6,6,0,0,1,38.44,11a4.34,4.34,0,0,0-.89-4.58A4.32,4.32,0,0,0,33,5.56a6,6,0,0,1-4.24.35A6,6,0,0,1,26,2.67a4.16,4.16,0,0,0-7.72,0,6,6,0,0,1-2.74,3.24,6,6,0,0,1-4.23-.35,4.32,4.32,0,0,0-4.57.88A4.34,4.34,0,0,0,5.85,11a6,6,0,0,1,.35,4.23A6,6,0,0,1,3,18a4.16,4.16,0,0,0,0,7.72A6,6,0,0,1,6.2,28.45a6,6,0,0,1-.35,4.23,4.32,4.32,0,0,0,.88,4.57,4.32,4.32,0,0,0,4.58.89,6,6,0,0,1,4.23-.35A6,6,0,0,1,18.28,41,4.16,4.16,0,0,0,26,41a6.09,6.09,0,0,1,2.74-3.25,6,6,0,0,1,4.23.36,4.16,4.16,0,0,0,5.46-2.2,4.1,4.1,0,0,0,0-3.26,6,6,0,0,1-.35-4.23,6,6,0,0,1,3.24-2.74A4.34,4.34,0,0,0,43.93,21.85Zm-21.79,8a8,8,0,1,1,8-8h0A8,8,0,0,1,22.14,29.84Z" transform="translate(0.15 0.43)"/></svg>