<?xml version="1.0" encoding="utf-8"?>
<!-- Generator: Adobe Illustrator 22.1.0, SVG Export Plug-In . SVG Version: 6.00 Build 0)  -->
<svg version="1.1" id="Слой_1" xmlns="http://www.w3.org/2000/svg" xmlns:xlink="http://www.w3.org/1999/xlink" x="0px" y="0px"
	 viewBox="0 0 49 49" style="enable-background:new 0 0 49 49;" xml:space="preserve">
<style type="text/css">
	.st0{fill:#555555;stroke:#555555;stroke-miterlimit:10;}
</style>
<path id="icon" class="st0" d="M47.7,17.5c-0.6-0.6-1.6-0.6-2.2,0c0,0,0,0,0,0L31.6,31.3l-19.5,8.6l-3-3l8.6-19.5L31.5,3.6
	c0.6-0.6,0.6-1.6-0.1-2.2c-0.6-0.6-1.6-0.6-2.2,0L15,15.6L0.5,48.5L33.4,34l14.3-14.3C48.3,19.1,48.3,18.1,47.7,17.5
	C47.7,17.5,47.7,17.5,47.7,17.5z M27.5,28.5c0.6,0.6,1.6,0.6,2.3,0l13.3-13.3c0.6-0.6,0.7-1.6,0-2.2s-1.6-0.7-2.2,0c0,0,0,0,0,0
	L27.5,26.2C26.9,26.8,26.9,27.8,27.5,28.5L27.5,28.5z M24,25c0.6,0.6,1.6,0.6,2.3,0l13.3-13.3c0.6-0.6,0.6-1.6,0-2.3
	c-0.6-0.6-1.6-0.6-2.2,0L24,22.7C23.4,23.4,23.4,24.4,24,25L24,25z M20.5,21.5c0.6,0.6,1.6,0.6,2.3,0L36.1,8.2
	c0.6-0.6,0.6-1.6,0-2.3c-0.6-0.6-1.6-0.6-2.3,0c0,0,0,0,0,0L20.5,19.3C19.9,19.9,19.9,20.9,20.5,21.5z"/>
</svg>
