<svg id="Слой_1" data-name="Слой 1" xmlns="http://www.w3.org/2000/svg" viewBox="0 0 49.08 49.05"><defs><style>.cls-1{fill:#c7b299;stroke:#c7b299;stroke-miterlimit:10;}</style></defs><title>services-design-after</title><path id="icon" class="cls-1" d="M47.67,17.47a1.59,1.59,0,0,0-2.25,0h0L31.57,31.31,12.11,39.89l-3-3,8.57-19.47L31.53,3.58a1.59,1.59,0,0,0-2.25-2.25L15,15.59.53,48.46,33.4,34,47.67,19.72a1.59,1.59,0,0,0,0-2.25Zm-20.18,11a1.59,1.59,0,0,0,2.25,0L43.08,15.13a1.59,1.59,0,0,0-2.2-2.29.12.12,0,0,0-.05.05L27.5,26.22a1.59,1.59,0,0,0,0,2.25ZM24,25a1.59,1.59,0,0,0,2.25,0L39.6,11.65A1.59,1.59,0,0,0,37.35,9.4L24,22.74A1.59,1.59,0,0,0,24,25ZM20.53,21.5a1.59,1.59,0,0,0,2.25,0L36.12,8.17a1.59,1.59,0,0,0-2.25-2.26h0L20.53,19.25A1.59,1.59,0,0,0,20.53,21.5Z" transform="translate(0.44 -0.39)"/></svg>