<svg id="Слой_1" data-name="Слой 1" xmlns="http://www.w3.org/2000/svg" viewBox="0 0 51.93 36.67"><defs><style>.cls-1{fill:#c7b299;stroke:#c7b299;stroke-miterlimit:10;}</style></defs><title>services-marketing-after</title><path id="icon" class="cls-1" d="M9,13.24a6.79,6.79,0,0,1,5.74-3.6H41V8A2.48,2.48,0,0,0,38.49,5.5H27.67V4.06A3.69,3.69,0,0,0,24,.34H17.7a3.63,3.63,0,0,0-2.61,1.1A3.72,3.72,0,0,0,14,4.06V5.5H3.2A2.48,2.48,0,0,0,.74,8V30.15Zm7.47-9.18a1.25,1.25,0,0,1,.36-.88,1.19,1.19,0,0,1,.87-.36H24a1.23,1.23,0,0,1,1.23,1.24h0V5.5H16.47V4.06Zm25.45,29.7A4.32,4.32,0,0,1,38.38,36H3.08a1.42,1.42,0,0,1-1.37-2.22L11.2,14.34a4.34,4.34,0,0,1,3.54-2.23H50a1.43,1.43,0,0,1,1.62,1.2,1.45,1.45,0,0,1-.25,1Z" transform="translate(-0.24 0.16)"/></svg>